<svg width="24" height="24" viewBox="0 0 24 24" fill="none" xmlns="http://www.w3.org/2000/svg">
<path style="fill:#4fbfa5" d="M 20.116837,23.904171 C 15.250119,23.167909 10.795972,20.829469 6.9786427,17.006581 3.1231682,13.145491 0.76789753,8.6279466 0.08696465,3.7879453 -0.02912211,2.9628125 -0.00970734,2.7860616 0.22515379,2.5298792 0.31445241,2.4324738 1.0875271,2.0463398 2.8584907,1.2145846 5.348467,0.04513607 5.3672166,0.03730451 5.6312512,0.05640308 5.8260577,0.07049409 5.9390123,0.10814688 6.0540108,0.1973274 6.2941406,0.38354678 9.2828883,5.0550797 9.3149822,5.2943573 9.3728386,5.7257077 9.3561394,5.75007 8.2053642,6.9131752 7.6181986,7.5066319 7.1102475,8.0449219 7.0765842,8.109375 c -0.2095153,0.4011469 0.2107177,2.00035 0.846015,3.219523 1.0291388,1.974977 2.7737788,3.719508 4.7491268,4.74883 1.218569,0.634977 2.817853,1.05515 3.218899,0.845688 0.06445,-0.03366 0.602743,-0.541615 1.1962,-1.12878 0.922017,-0.912243 1.104891,-1.072429 1.256875,-1.100941 0.389054,-0.07299 0.473904,-0.03174 2.129761,1.035282 0.869674,0.560413 1.947238,1.253191 2.394586,1.539509 0.448095,0.286795 0.867915,0.591049 0.93484,0.677503 0.08897,0.114931 0.126636,0.228191 0.140743,0.423219 0.01915,0.264784 0.01258,0.280474 -1.16135,2.77276 -0.649337,1.378559 -1.215792,2.546362 -1.25879,2.595121 -0.119565,0.135584 -0.431853,0.261208 -0.640678,0.257724 -0.103125,-0.0017 -0.447813,-0.04251 -0.765975,-0.09064 z" />
</svg>
