<svg width="24" height="24" viewBox="0 0 24 24" fill="none" xmlns="http://www.w3.org/2000/svg">
<path style="fill:#4fbfa5" d="M 0.80065881,23.939057 C 0.47613959,23.866724 0.11428614,23.494432 0.03085265,23.147044 -0.08757822,22.653939 0.14213027,22.162185 0.59655906,21.935996 0.84505942,21.812305 0.91667181,21.801917 1.5208242,21.801917 H 2.1757177 L 2.188875,11.280331 2.2020322,0.7587465 2.3560208,0.50996861 C 2.4654005,0.33325777 2.5836089,0.22335733 2.7640731,0.13059486 L 3.0181368,0 h 8.9843492 8.984349 l 0.254063,0.13059486 c 0.180464,0.0927615 0.298672,0.20266291 0.408053,0.37937375 l 0.153988,0.24877789 0.01316,10.5215845 0.01315,10.521586 h 0.654894 c 0.601779,0 0.676434,0.01072 0.92048,0.132194 0.456229,0.227086 0.674636,0.683979 0.569277,1.1909 -0.08044,0.387043 -0.425192,0.735643 -0.808785,0.817813 -0.177749,0.03809 -1.171704,0.05717 -2.97557,0.05717 h -2.708664 l -0.01401,-3.978484 -0.01401,-3.978485 -0.154322,-0.249287 c -0.112332,-0.181466 -0.228785,-0.288143 -0.428051,-0.39212 L 16.596755,15.258785 H 12.002486 7.4082161 L 7.1344815,15.401621 C 6.9352161,15.505598 6.8187637,15.612275 6.7064249,15.793744 L 6.5521028,16.043031 6.5380958,20.021516 6.5240878,24 3.7745217,23.994606 C 2.192067,23.99151 0.9297483,23.967907 0.80065981,23.93914 Z M 8.2183385,11.812409 c 0.1104738,-0.07303 0.2643906,-0.228658 0.3420363,-0.345854 0.1407217,-0.212399 0.1411747,-0.215977 0.1411747,-1.115118 0,-0.8991395 -4.607e-4,-0.902718 -0.1411747,-1.1151171 C 8.3572413,8.9297188 8.0796905,8.7631176 7.7197969,8.7317579 7.3093826,8.6959921 6.9292616,8.8906342 6.7064249,9.2506483 L 6.5521028,9.4999698 v 0.8514672 0.851468 l 0.1543221,0.249323 c 0.2228367,0.360013 0.6029577,0.554652 1.013372,0.518889 0.2025377,-0.01765 0.3618782,-0.06837 0.4985416,-0.158708 z m 4.1824155,0.09542 c 0.239929,-0.10011 0.453147,-0.300795 0.578787,-0.544772 0.08418,-0.163473 0.09767,-0.303138 0.09767,-1.011622 0,-0.7084837 -0.01348,-0.8481473 -0.09767,-1.0116209 -0.425777,-0.8268011 -1.528333,-0.8268011 -1.95411,0 -0.08418,0.1634736 -0.09767,0.3031372 -0.09767,1.0116209 0,0.708484 0.01348,0.848149 0.09767,1.011622 0.269409,0.523154 0.863315,0.758403 1.375323,0.544772 z m 4.531585,-0.09169 c 0.15176,-0.08884 0.287184,-0.224746 0.378432,-0.379793 0.139908,-0.237734 0.142097,-0.254507 0.142097,-1.088814 V 9.5001641 L 17.298546,9.2507459 c -0.222807,-0.3601087 -0.602877,-0.5547568 -1.013371,-0.518988 -0.3598,0.031357 -0.637366,0.1979096 -0.840578,0.5044049 -0.136012,0.2051382 -0.141805,0.2412453 -0.15839,0.9872862 -0.01063,0.478171 0.0052,0.857782 0.04158,0.992453 0.07076,0.262487 0.427538,0.640554 0.67553,0.715841 0.282511,0.08577 0.666672,0.03796 0.929023,-0.115609 z M 8.102255,6.4200164 C 8.2066869,6.3663627 8.3542413,6.2570965 8.4301537,6.1772058 8.6832842,5.9108078 8.7271381,5.7212473 8.7271381,4.8934677 8.7271381,4.1757789 8.7198718,4.1205216 8.591681,3.8635759 8.2507558,3.1802183 7.3664754,3.0578557 6.8458666,3.6219974 6.5706781,3.9201971 6.5097659,4.2027355 6.5355352,5.0614561 6.5568842,5.7728877 6.6241972,5.9960698 6.8929344,6.2464493 7.1875059,6.5208984 7.7490401,6.6014917 8.102255,6.4200164 Z m 4.521018,-0.082906 c 0.118679,-0.08349 0.269366,-0.25319 0.334858,-0.3770998 0.11018,-0.2084571 0.119078,-0.2859338 0.119078,-1.0367862 0,-0.8645701 -0.04144,-1.0649409 -0.271123,-1.3108891 -0.432224,-0.462834 -1.231901,-0.4420268 -1.640225,0.042682 -0.212101,0.2517776 -0.247543,0.4625027 -0.229275,1.3631586 0.01672,0.824191 0.01719,0.827083 0.170297,1.0439989 0.231323,0.3277313 0.532264,0.4676153 0.957369,0.4450044 0.280552,-0.014919 0.382651,-0.045983 0.559021,-0.1700651 z m 4.17803,0.101344 c 0.243441,-0.1015987 0.403988,-0.2529312 0.539721,-0.5087425 0.09037,-0.1703086 0.11182,-0.3153789 0.128412,-0.8682563 0.02577,-0.8587206 -0.03514,-1.141259 -0.310331,-1.4394587 -0.520609,-0.5641417 -1.404889,-0.4417791 -1.745815,0.2415785 -0.128656,0.2578819 -0.1354,0.3101483 -0.134333,1.0410292 9.36e-4,0.6397018 0.01711,0.8040099 0.0959,0.9739893 0.103842,0.2240278 0.304583,0.4290191 0.542692,0.5541801 0.197811,0.1039794 0.641387,0.1068302 0.883753,0.00563 z M 8.7271381,20.728435 v -3.271566 h 3.2753479 3.275347 V 20.728435 24 H 12.002486 8.7271381 Z" />
</svg>
