<svg width="24" height="24" viewBox="0 0 24 14" fill="none" xmlns="http://www.w3.org/2000/svg">
<path fill="#4fbfa5" d="m 21.3624,9.75765 c 1.826214,1.718212 2.1746,2.4219 2.4204,2.80325 0.2458,0.38135 0.241807,0.6271 0.1692,0.816 -0.162,0.3132 -0.7104,0.4704 -0.8964,0.4836 H 19.626 c -0.2388,0 -0.7356,-0.0624 -1.3404,-0.48 -0.462,-0.3228 -0.9216,-0.8544 -1.3668,-1.374 -0.6648,-0.7716 -1.2396,-1.4412 -1.8216,-1.4412 -0.0735,-2e-4 -0.1465,0.012 -0.216,0.036 -0.4404,0.1392 -0.9996,0.7668 -0.9996,2.4384 0,0.5232 -0.4128,0.8208 -0.702,0.8208 h -1.5708 c -0.5352,0 -3.32158,-0.1872 -5.79238,-2.7924 C 2.78882,7.87845 0.0696165,1.48005 0.0432165,1.42365 -0.125984,1.00965 0.229217,0.784049 0.613217,0.784049 H 4.07642 c 0.4644,0 0.6156,0.280801 0.7212,0.532801 0.1224,0.2892 0.576,1.446 1.32,2.7456 1.2048,2.1144 1.9452,2.9748 2.5368,2.9748 0.11114,3.3e-4 0.22041,-0.02865 0.3168,-0.084 0.7728,-0.4248 0.6288,-3.1848 0.5928,-3.7536 0,-0.1104 -0.0012,-1.2324 -0.3972,-1.7748 -0.2832,-0.3888 -0.7656,-0.540002 -1.0572,-0.595202 0.078,-0.1128 0.2436,-0.2856 0.456,-0.3876 0.5292,-0.264 1.48558,-0.3024 2.43478,-0.3024 h 0.5268 c 1.0296,0.0144 1.296,0.0804 1.6704,0.1752 0.7536,0.18 0.768,0.668401 0.702,2.331602 -0.0192,0.4752 -0.0396,1.0104 -0.0396,1.6404 0,0.1344 -0.006,0.2844 -0.006,0.4368 -0.0228,0.8532 -0.0528,1.8144 0.5496,2.2092 0.0781,0.04867 0.1684,0.07445 0.2604,0.0744 0.2088,0 0.834,0 2.5296,-2.91 0.744,-1.2852 1.32,-2.8008 1.3596,-2.9148 0.0336,-0.0636 0.1344,-0.242402 0.2568,-0.314402 0.0871,-0.046325 0.1846,-0.069467 0.2832,-0.067199 h 4.074 c 0.444,0 0.7452,0.0672 0.804,0.235201 0.0984,0.2724 -0.0192,1.104 -1.8792,3.6192 -0.3132,0.4188 -0.588,0.7812 -0.8292,1.098 -1.686,2.2128 -1.726614,2.2861881 0.0996,4.0044 z"/>
</svg>