<svg width="24" height="24" viewBox="0 0 24 24" fill="none" xmlns="http://www.w3.org/2000/svg">
<path fill="#4fbfa5" d="M 23.493672,6.22321 C 23.357108,5.7158441 23.089694,5.2532415 22.718172,4.8817081 22.346535,4.5101746 21.884046,4.2427497 21.376645,4.1061859 19.508175,3.6005 12.000013,3.6005 12.000013,3.6005 c 0,0 -7.5081844,0 -9.376654,0.5056859 C 2.1159924,4.2427497 1.6534005,4.5101746 1.2818665,4.8817081 0.91033239,5.2532415 0.64290699,5.7158441 0.50633159,6.22321 0.15744779,8.12876 -0.01185731,10.062823 6.4488735e-4,11.999972 -0.01185711,13.937234 0.15744779,15.871297 0.50633159,17.77679 c 0.1365754,0.5074 0.4040008,0.970003 0.77553491,1.341525 0.371534,0.371521 0.8341259,0.638935 1.3414925,0.775499 1.8684696,0.505686 9.376654,0.505686 9.376654,0.505686 0,0 7.508162,0 9.376632,-0.505686 0.507401,-0.136564 0.96989,-0.403978 1.341527,-0.775499 0.371522,-0.371522 0.638936,-0.834125 0.7755,-1.341525 0.348896,-1.905493 0.518144,-3.839556 0.505687,-5.776818 C 24.011819,10.062823 23.842568,8.12876 23.493672,6.22321 Z M 9.6001213,15.59977 V 8.400231 l 6.2311117,3.599741 z" />
</svg>